<?xml version="1.0" encoding="UTF-8"?>
<svg xmlns="http://www.w3.org/2000/svg" version="1.1" viewBox="0 0 16 16">
  <defs>
    <style>
      .cls-1 {
        fill: #fff;
        stroke: #000;
        stroke-miterlimit: 10;
      }
    </style>
  </defs>
  <!-- Generator: Adobe Illustrator 28.7.1, SVG Export Plug-In . SVG Version: 1.2.0 Build 142)  -->
  <g>
    <g id="Layer_1">
      <path d="M4.6,10.5h-.6c-1.1,0-2-.9-2-2s.9-2,2-2h.8c.2-.4.5-.7.8-1h-1.6c-1.7,0-3,1.3-3,3s1.3,3,3,3h1.3c-.3-.3-.5-.6-.7-1Z"/>
      <path d="M12,5.5h-1.5c.3.3.6.6.8,1h.6c1.1,0,2,.9,2,2s-.9,2-2,2h-.5c-.2.4-.4.7-.7,1h1.1c1.7,0,3-1.3,3-3s-1.3-3-3-3Z"/>
      <path class="cls-1" d="M8,3.4v10.2"/>
    </g>
  </g>
</svg>