<svg xmlns="http://www.w3.org/2000/svg" xmlns:xlink="http://www.w3.org/1999/xlink" viewBox="0 0 248 248"><defs><style>.b63d50df-1bcf-4922-aaa2-bd6107629895{isolation:isolate;}.b059b3f0-563f-4520-baca-f80ca692afed{fill:url(#f872b8a1-0ba3-42fe-935f-c400be2aac07);}.fa3340ee-d5b4-4a9a-85aa-ed948c0822c0{fill:url(#b234b06a-9ccc-4590-af3a-06d8c3083378);}.b6c69ce1-56d0-41db-9afd-d908ac841e64{fill:url(#bfe9e94f-8781-4f5b-99c2-0dad60cb951f);}.a9ad92f5-2205-4d04-b14e-fb17e95ac7d1{opacity:0.43;}.b8d508a0-014a-4430-ab44-6568608ac0d5{fill:#00c;}.a88181d9-22db-4441-92ae-5381116270dc{mix-blend-mode:overlay;}.bbe97d08-8230-4e75-9198-40d176b75c6d{mix-blend-mode:soft-light;}.a60d7004-969d-4d47-967c-79e1ccd52905,.ea08cd4b-1c24-4522-8163-857f7c23d963{fill:#fafafa;}.a60d7004-969d-4d47-967c-79e1ccd52905{opacity:0.74;}.ea08cd4b-1c24-4522-8163-857f7c23d963{stroke:#000;stroke-miterlimit:10;stroke-width:0.25px;}</style><linearGradient id="f872b8a1-0ba3-42fe-935f-c400be2aac07" x1="3.59" y1="3.59" x2="244.41" y2="244.41" gradientUnits="userSpaceOnUse"><stop offset="0" stop-color="#004ca4"/><stop offset="0.08" stop-color="#0a54ad"/><stop offset="0.21" stop-color="#236bc4"/><stop offset="0.25" stop-color="#2d74cd"/><stop offset="0.5" stop-color="#4c90e9"/><stop offset="0.69" stop-color="#4c90e9"/><stop offset="0.75" stop-color="#4387e1"/><stop offset="0.85" stop-color="#2b70ca"/><stop offset="0.98" stop-color="#054ba5"/><stop offset="0.99" stop-color="#0046a0"/><stop offset="1" stop-color="#004ca4"/></linearGradient><linearGradient id="b234b06a-9ccc-4590-af3a-06d8c3083378" x1="124" y1="-10.44" x2="124" y2="167.91" gradientUnits="userSpaceOnUse"><stop offset="0.01" stop-color="#fff" stop-opacity="0.1"/><stop offset="0.22" stop-color="#fff" stop-opacity="0.11"/><stop offset="0.36" stop-color="#fff" stop-opacity="0.14"/><stop offset="0.48" stop-color="#fff" stop-opacity="0.2"/><stop offset="0.58" stop-color="#fff" stop-opacity="0.29"/><stop offset="0.68" stop-color="#fff" stop-opacity="0.39"/><stop offset="0.77" stop-color="#fff" stop-opacity="0.52"/><stop offset="0.86" stop-color="#fff" stop-opacity="0.68"/><stop offset="0.94" stop-color="#fff" stop-opacity="0.86"/><stop offset="1" stop-color="#fff"/></linearGradient><linearGradient id="bfe9e94f-8781-4f5b-99c2-0dad60cb951f" x1="29.05" y1="77.28" x2="224.3" y2="272.52" xlink:href="#f872b8a1-0ba3-42fe-935f-c400be2aac07"/></defs><g class="b63d50df-1bcf-4922-aaa2-bd6107629895"><g id="a2edaef2-5b6d-46fc-a0dc-81f79c100fb7" data-name="Layer 1"><rect class="b059b3f0-563f-4520-baca-f80ca692afed" x="0.1" y="0.1" width="247.8" height="247.8" rx="11.9"/><path d="M240,4.2A11.81,11.81,0,0,1,251.8,16V240A11.81,11.81,0,0,1,240,251.8H16A11.81,11.81,0,0,1,4.2,240V16A11.81,11.81,0,0,1,16,4.2H240m0-.2H16A12,12,0,0,0,4,16V240a12,12,0,0,0,12,12H240a12,12,0,0,0,12-12V16A12,12,0,0,0,240,4Z" transform="translate(-4 -4)"/><rect class="fa3340ee-d5b4-4a9a-85aa-ed948c0822c0" x="0.1" y="0.1" width="247.8" height="247.8" rx="11.9"/><path d="M240,4.2A11.81,11.81,0,0,1,251.8,16V240A11.81,11.81,0,0,1,240,251.8H16A11.81,11.81,0,0,1,4.2,240V16A11.81,11.81,0,0,1,16,4.2H240m0-.2H16A12,12,0,0,0,4,16V240a12,12,0,0,0,12,12H240a12,12,0,0,0,12-12V16A12,12,0,0,0,240,4Z" transform="translate(-4 -4)"/><path class="b6c69ce1-56d0-41db-9afd-d908ac841e64" d="M16,251.9A11.92,11.92,0,0,1,4.1,240V102.23c35,19.91,80.79,30.87,128.9,30.87,43.24,0,85.46-9.08,118.9-25.57V240A11.92,11.92,0,0,1,240,251.9Z" transform="translate(-4 -4)"/><path d="M4.2,102.4c35,19.86,80.74,30.8,128.8,30.8,43.2,0,85.37-9.06,118.8-25.51V240A11.81,11.81,0,0,1,240,251.8H16A11.81,11.81,0,0,1,4.2,240V102.4m-.2-.34V240a12,12,0,0,0,12,12H240a12,12,0,0,0,12-12V107.37c-32.41,16-73.84,25.63-119,25.63-49.94,0-95.33-11.76-129-30.94Z" transform="translate(-4 -4)"/><g class="a9ad92f5-2205-4d04-b14e-fb17e95ac7d1"><path class="b8d508a0-014a-4430-ab44-6568608ac0d5" d="M34.13,91.32C19.94,90.18,20,109.64,20,109.64l.27,93.9c.07,22.38,11.9,35.37,29,35.46C100.27,191.77,48.33,92.47,34.13,91.32Z" transform="translate(-4 -4)"/><path class="b8d508a0-014a-4430-ab44-6568608ac0d5" d="M54.35,238.67h0l-.24,0Z" transform="translate(-4 -4)"/><path class="b8d508a0-014a-4430-ab44-6568608ac0d5" d="M55.91,80l2,5c.59,1.59,1.38,3.51,2.06,5.78s1.62,4.8,2.33,7.63,1.56,5.89,2.2,9.16,1.45,6.72,1.88,10.34q.38,2.72.77,5.5c.18,1.86.36,3.75.55,5.65s.3,3.82.4,5.75.24,3.87.28,5.81c0,3.88.11,7.76,0,11.57s-.4,7.56-.61,11.19-.68,7.11-1.19,10.4-1,6.41-1.45,9.27-1.09,5.46-1.57,7.77-1,4.29-1.45,5.94c-.93,3.25-1.46,5.12-1.46,5.12s.34-1.9.92-5.23c.27-1.67.59-3.69,1-6l1-7.81c.35-2.87.73-6,1-9.26s.46-6.77.76-10.36c.14-3.6.34-7.31.36-11.09s0-7.61,0-11.44c0-1.92-.16-3.84-.23-5.75s-.16-3.81-.35-5.69-.3-3.75-.44-5.6-.42-3.66-.63-5.44c-.37-3.59-1-7-1.43-10.3s-1.21-6.32-1.74-9.16S59.45,93.32,58.94,91s-1.12-4.27-1.59-5.9C56.44,81.84,55.91,80,55.91,80Z" transform="translate(-4 -4)"/><path class="b8d508a0-014a-4430-ab44-6568608ac0d5" d="M49.14,47.28C66.78,64,86.37,92.37,100.55,124.44,112,150.37,113,174.35,112.31,191.39a11.07,11.07,0,0,0,7.29,11.14L156,171.08s9-46.78-21.67-92.91c-24.23-36.4-61.06-58.71-81.62-60.93-12.91-1.4-23.28,4-28.71,14.94h0c.83-1.56,3-1.45,5.16-.21C32.35,33.8,39.13,37.78,49.14,47.28Z" transform="translate(-4 -4)"/><g class="a88181d9-22db-4441-92ae-5381116270dc"><path class="b8d508a0-014a-4430-ab44-6568608ac0d5" d="M53.24,45.52l4.5,4.2L60.1,52l2.6,2.78c1.82,2,4.08,4.18,6.12,6.82s4.49,5.35,6.74,8.44,4.78,6.26,7,9.76l3.48,5.3,1.77,2.7,1.66,2.81C91.65,94.35,94.05,98.1,96,102s4.18,7.8,5.92,11.77q1.38,3,2.7,5.86c.44,1,.89,1.9,1.31,2.92l1.16,2.88,1.14,2.84c.33,1,.65,1.92,1,2.86.64,1.9,1.27,3.74,1.75,5.57,1.09,3.62,1.88,7.1,2.59,10.3.31,1.62.6,3.16.88,4.64s.4,2.88.59,4.2c.4,2.63.53,5,.73,6.85s.19,3.39.25,4.41.07,1.56.07,1.56-.31-2.15-.86-5.92c-.34-1.87-.63-4.17-1.22-6.75s-1.22-5.5-2-8.67-1.78-6.55-3-10.08c-.55-1.78-1.26-3.56-2-5.39-.35-.91-.69-1.83-1-2.76s-.79-1.87-1.2-2.81-.81-1.9-1.22-2.86-.89-1.88-1.34-2.82c-.91-1.9-1.83-3.83-2.77-5.77-1.76-3.93-4-7.74-6-11.63s-4.29-7.65-6.4-11.42S82.65,84.51,80.5,81c-1-1.77-2.24-3.42-3.34-5.07s-2.2-3.26-3.27-4.83c-2.1-3.15-4.37-5.94-6.32-8.63l-1.45-2-1.48-1.79-2.71-3.33-2.39-2.94-2.19-2.38Z" transform="translate(-4 -4)"/></g><path class="b8d508a0-014a-4430-ab44-6568608ac0d5" d="M146.22,143.05" transform="translate(-4 -4)"/><path class="b8d508a0-014a-4430-ab44-6568608ac0d5" d="M208.33,99.48l-44.8-24.85s-11.86-7.22-10.16,4.72c1.63,11.42,1.83,28.75-3.11,52.07C140.5,177.6,122,192.52,122,192.52s-8.74,7.2-9.69-1.13c0,0-5.08,21.79,10.76,13.06h0l85.42-47.1C237.22,141.51,237.15,115.47,208.33,99.48Z" transform="translate(-4 -4)"/><g class="bbe97d08-8230-4e75-9198-40d176b75c6d"><path class="b8d508a0-014a-4430-ab44-6568608ac0d5" d="M158.61,84.49s.19,1.61.47,4.42c.12,1.41.31,3.11.45,5.07s.08,4.2.08,6.63v3.81c-.06,1.31-.2,2.65-.3,4-.23,2.77-.47,5.7-.72,8.73-.49,3-1,6.1-1.52,9.25-.26,1.57-.54,3.16-.81,4.75l-1.08,4.74c-.38,1.58-.76,3.14-1.13,4.71s-.9,3.11-1.34,4.65-.91,3.06-1.37,4.57-1,2.95-1.56,4.38c-1,2.9-2.17,5.62-3.27,8.19s-2.36,4.93-3.42,7.14-2.31,4.1-3.3,5.82L137,179.73c-1.7,2.32-2.7,3.61-2.7,3.61l2.24-3.87,2.38-4.53c.8-1.8,1.79-3.79,2.77-6l1.44-3.48c.53-1.19,1-2.44,1.48-3.75,1-2.59,2-5.31,2.88-8.2q.69-2.14,1.41-4.35l1.25-4.52c.42-1.52.88-3,1.27-4.58s.72-3.14,1.09-4.71l1.11-4.67c.29-1.57.57-3.14.85-4.69.59-3.1,1.17-6.16,1.74-9.11.37-3,.73-5.86,1.08-8.59q.27-2.06.51-4c.09-1.29.17-2.53.25-3.73.15-2.39.33-4.59.49-6.55s0-3.68,0-5.09C158.56,86.11,158.61,84.49,158.61,84.49Z" transform="translate(-4 -4)"/></g><path class="b8d508a0-014a-4430-ab44-6568608ac0d5" d="M103.67,141.47c3-57.19-17.89-100.57-17.89-100.57l-13.72-17c-21.56-12-40.15-7.81-48.1,8.29h0C86.06,102.51,58.13,208,50,222.25c-6.21,10.87-17.44,9.31-20.48,8.65,5.42,5.67,12.91,8.49,21.66,8l2.95-.26.24,0C85.27,225.51,100.54,200.48,103.67,141.47Z" transform="translate(-4 -4)"/></g><path class="a60d7004-969d-4d47-967c-79e1ccd52905" d="M103.31,101.38,106,98l-4.18-1.9,4-3.25-3.46-3.6,4.14-3.66-9-9.13,1-5.58L85,54.46,63.12,50A2.4,2.4,0,0,0,61,48a2.23,2.23,0,1,0-.64,4.42,2.4,2.4,0,0,0,2.53-1.15L83,55.31,77.43,59.1l-10.8-3a2.34,2.34,0,0,0-2-2.48,2.36,2.36,0,0,0-2.74,1.67,2.31,2.31,0,0,0,2,2.72,2.42,2.42,0,0,0,2.24-.73L77.72,60.5l6.77-4.59L96,69.83,64.12,61.12A2.37,2.37,0,0,0,62,58.91a2.3,2.3,0,0,0-2.65,1.66,2.33,2.33,0,0,0,1.94,2.75,2.43,2.43,0,0,0,2.43-1L70.23,64l-6.67,4.3L58,66.7a2.4,2.4,0,0,0-2.09-2.19,2.28,2.28,0,0,0-2.68,1.54,2.47,2.47,0,0,0,2,2.87,2.42,2.42,0,0,0,2.45-1l6.2,1.78,8.11-5.23,25.1,7L96.23,76l-6.77.17L84,71.87l-9.56-.63a2.45,2.45,0,0,0-2-1.64,2.24,2.24,0,1,0,2,2.92l9.11.64,3.88,3-23.84.52a2.45,2.45,0,0,0-2-1.53A2.36,2.36,0,0,0,59,76.9,2.42,2.42,0,0,0,63.66,78l10-.16-2.95,4.79-7,.18a2.47,2.47,0,0,0-2-1.49A2.35,2.35,0,0,0,59.21,83a2.41,2.41,0,0,0,4.69,1.06l7.68-.19,3.75-6.09,21.21-.54,8.07,8.2-3.5,3.1-16.4,2.33-5.47-4.54-15.5,2.22a2.49,2.49,0,0,0-2-1.2,2.33,2.33,0,0,0-2.43,1.57,2.3,2.3,0,0,0,1.93,2.86A2.32,2.32,0,0,0,64,90l0-.2,14.78-2.13L83,91.14,58,94.2a2.47,2.47,0,0,0-1.84-1.26,2.35,2.35,0,0,0-2.66,1.69,2.41,2.41,0,0,0,4.73.94s0-.07,0-.11l14.5-1.57-1.6,3.87-7.24,1.45A2.49,2.49,0,0,0,62.08,98a2.34,2.34,0,0,0-2.64,1.69,2.41,2.41,0,0,0,4.72.94.49.49,0,0,0,0-.12l8-1.57,2.17-5.24,26.85-3.81,2.72,2.82-4.55,3.67,4.57,2.08-1.78,2.27-4,.62L91.25,97l-10,1.31a2.46,2.46,0,0,0-1.73-1.07,2.24,2.24,0,1,0,2.08,2.62c0-.1,0-.21,0-.31L91,98.31l5.24,3.3L67,106.13a2.49,2.49,0,0,0-1.84-1.24,2.25,2.25,0,1,0,2.08,2.63s0-.09,0-.13l13.7-2.13-3.29,5.23-4.5.7a2.54,2.54,0,0,0-1.87-.91A2.32,2.32,0,0,0,69,111.77a2.29,2.29,0,0,0,2,3,2.44,2.44,0,0,0,2.4-1,2,2,0,0,0,.33-1.27l4.88-.76L82.7,105l19.42-3,2.09,4.72-1.58,2.45L85.09,110l-5.77,8.46a2.39,2.39,0,0,0-1.42-.14A2.25,2.25,0,0,0,76,120.09a2.43,2.43,0,0,0,4.66,1.17,2.15,2.15,0,0,0-.31-1.94l5.49-8,17.56-.88,2.3-3.54Z" transform="translate(-4 -4)"/><polygon class="ea08cd4b-1c24-4522-8163-857f7c23d963" points="53.53 207 41.87 207 41.87 129.34 118.38 129.34 118.38 142.9 53.53 142.9 53.53 207"/><polygon class="ea08cd4b-1c24-4522-8163-857f7c23d963" points="114.44 119.16 41.87 119.16 41.87 41.5 53.53 41.5 53.53 105.6 108.32 105.6 114.44 119.16"/><rect class="ea08cd4b-1c24-4522-8163-857f7c23d963" x="20" y="41.5" width="11.66" height="165.5"/><path class="ea08cd4b-1c24-4522-8163-857f7c23d963" d="M193.51,211H87V197.43H193.51c14.79,0,26.83-14,26.83-31.2s-12-31.2-26.83-31.2h-36c-10.28,0-19.94-4.65-27.21-13.11A48.38,48.38,0,0,1,119,90.27a48.41,48.41,0,0,1,11.27-31.66c7.27-8.45,16.93-13.11,27.21-13.11h68.68V59.07H157.49c-14.79,0-26.82,14-26.82,31.2s12,31.2,26.82,31.2h36c10.28,0,20,4.65,27.22,13.11a50.09,50.09,0,0,1,0,63.31C213.46,206.34,203.79,211,193.51,211Z" transform="translate(-4 -4)"/><path class="ea08cd4b-1c24-4522-8163-857f7c23d963" d="M175.5,109.6h-18c-9.16,0-16.62-8.67-16.62-19.33s7.46-19.33,16.62-19.33h68.68V84.5H157.49c-2.73,0-5,2.59-5,5.77s2.22,5.76,5,5.76h18Z" transform="translate(-4 -4)"/><path class="ea08cd4b-1c24-4522-8163-857f7c23d963" d="M193.51,185.56H124.84V172h68.67c2.74,0,5-2.59,5-5.77s-2.22-5.76-5-5.76h-18V146.9h18c9.17,0,16.62,8.67,16.62,19.33S202.68,185.56,193.51,185.56Z" transform="translate(-4 -4)"/></g></g></svg>