<svg xmlns="http://www.w3.org/2000/svg" xmlns:xlink="http://www.w3.org/1999/xlink" viewBox="0 0 245.5 86"><defs><style>.a8d6c867-9ccf-4514-9c81-04f7e333d51e{isolation:isolate;}.bf119276-3f88-408a-8af4-afe5482684c7{fill:url(#a0a4a952-55a7-4db0-8ab1-449c539c1b37);}.b2912198-b309-4cb3-a7cc-48402ed7bc5a{fill:url(#af522223-19bd-4bd2-b391-3a709731bc57);}.ef583c4b-76d6-43a2-8c73-41b3f3b49b1f{fill:url(#a8042f34-0533-4113-bf44-5ef7fb92ebff);}.f850ea74-c5d4-491d-8a93-7ee0f2f7ddb4{opacity:0.43;}.bb6b3b90-2909-46bb-b084-40bb1735a59f{fill:#00c;}.e391ea6d-8d5c-41a8-9d06-21c159f76b63{mix-blend-mode:overlay;}.ac254f8e-81fb-4924-a214-3b83216b486e{mix-blend-mode:soft-light;}.be973303-9085-411d-bffd-2df6dbb04680,.f0600e9b-5224-4cde-a8c4-25253fd92b26{fill:#fafafa;}.be973303-9085-411d-bffd-2df6dbb04680{opacity:0.74;}.f0600e9b-5224-4cde-a8c4-25253fd92b26{stroke:#000;stroke-miterlimit:10;stroke-width:0.09px;}.a7bab4f9-7e47-400c-88cb-f19e63b89fa2,.b501d5b8-ef00-4955-92b2-b157ed70b4eb{fill:#1d1d1b;}.b501d5b8-ef00-4955-92b2-b157ed70b4eb{font-size:11px;font-family:MalayalamMN, Malayalam MN;}</style><linearGradient id="a0a4a952-55a7-4db0-8ab1-449c539c1b37" x1="1.24" y1="1.24" x2="84.76" y2="84.76" gradientUnits="userSpaceOnUse"><stop offset="0" stop-color="#004ca4"/><stop offset="0.08" stop-color="#0a54ad"/><stop offset="0.21" stop-color="#236bc4"/><stop offset="0.25" stop-color="#2d74cd"/><stop offset="0.5" stop-color="#4c90e9"/><stop offset="0.69" stop-color="#4c90e9"/><stop offset="0.75" stop-color="#4387e1"/><stop offset="0.85" stop-color="#2b70ca"/><stop offset="0.98" stop-color="#054ba5"/><stop offset="0.99" stop-color="#0046a0"/><stop offset="1" stop-color="#004ca4"/></linearGradient><linearGradient id="af522223-19bd-4bd2-b391-3a709731bc57" x1="43" y1="-3.62" x2="43" y2="58.23" gradientUnits="userSpaceOnUse"><stop offset="0.01" stop-color="#fff" stop-opacity="0.1"/><stop offset="0.22" stop-color="#fff" stop-opacity="0.11"/><stop offset="0.36" stop-color="#fff" stop-opacity="0.14"/><stop offset="0.48" stop-color="#fff" stop-opacity="0.2"/><stop offset="0.58" stop-color="#fff" stop-opacity="0.29"/><stop offset="0.68" stop-color="#fff" stop-opacity="0.39"/><stop offset="0.77" stop-color="#fff" stop-opacity="0.52"/><stop offset="0.86" stop-color="#fff" stop-opacity="0.68"/><stop offset="0.94" stop-color="#fff" stop-opacity="0.86"/><stop offset="1" stop-color="#fff"/></linearGradient><linearGradient id="a8042f34-0533-4113-bf44-5ef7fb92ebff" x1="8.68" y1="25.36" x2="76.41" y2="93.1" xlink:href="#a0a4a952-55a7-4db0-8ab1-449c539c1b37"/></defs><g class="a8d6c867-9ccf-4514-9c81-04f7e333d51e"><g id="a3152f5a-c815-4649-8cec-5e6ecc6e7d84" data-name="Layer 1"><rect class="bf119276-3f88-408a-8af4-afe5482684c7" x="0.03" y="0.03" width="85.93" height="85.93" rx="4.13"/><path d="M81.84.07a4.09,4.09,0,0,1,4.09,4.09V81.84a4.09,4.09,0,0,1-4.09,4.09H4.16A4.09,4.09,0,0,1,.07,81.84V4.16A4.09,4.09,0,0,1,4.16.07H81.84m0-.07H4.16A4.16,4.16,0,0,0,0,4.16V81.84A4.16,4.16,0,0,0,4.16,86H81.84A4.16,4.16,0,0,0,86,81.84V4.16A4.16,4.16,0,0,0,81.84,0Z"/><rect class="b2912198-b309-4cb3-a7cc-48402ed7bc5a" x="0.03" y="0.03" width="85.93" height="85.93" rx="4.13"/><path d="M81.84.07a4.09,4.09,0,0,1,4.09,4.09V81.84a4.09,4.09,0,0,1-4.09,4.09H4.16A4.09,4.09,0,0,1,.07,81.84V4.16A4.09,4.09,0,0,1,4.16.07H81.84m0-.07H4.16A4.16,4.16,0,0,0,0,4.16V81.84A4.16,4.16,0,0,0,4.16,86H81.84A4.16,4.16,0,0,0,86,81.84V4.16A4.16,4.16,0,0,0,81.84,0Z"/><path class="ef583c4b-76d6-43a2-8c73-41b3f3b49b1f" d="M4.16,86A4.14,4.14,0,0,1,0,81.84V34c12.1,7,28,10.77,44.7,10.77,15,0,29.68-3.16,41.29-8.89l0,46A4.14,4.14,0,0,1,81.84,86Z"/><path d="M.07,34.12C12.21,41,28.07,44.8,44.73,44.8c15,0,29.61-3.14,41.2-8.84V81.84a4.09,4.09,0,0,1-4.09,4.09H4.16A4.09,4.09,0,0,1,.07,81.84V34.12M0,34V81.84A4.16,4.16,0,0,0,4.16,86H81.84A4.16,4.16,0,0,0,86,81.84v-46c-11.24,5.56-25.61,8.89-41.27,8.89C27.41,44.73,11.67,40.66,0,34Z"/><g class="f850ea74-c5d4-491d-8a93-7ee0f2f7ddb4"><path class="bb6b3b90-2909-46bb-b084-40bb1735a59f" d="M10.45,30.28c-4.92-.39-4.9,6.35-4.9,6.35l.09,32.56c0,7.76,4.12,12.27,10.05,12.3C33.38,65.11,15.37,30.68,10.45,30.28Z"/><path class="bb6b3b90-2909-46bb-b084-40bb1735a59f" d="M17.46,81.38h0Z"/><path class="bb6b3b90-2909-46bb-b084-40bb1735a59f" d="M18,26.35l.68,1.72c.21.56.48,1.22.72,2s.56,1.66.8,2.65.54,2,.77,3.17.5,2.33.65,3.59c.08.62.17,1.26.26,1.9s.13,1.3.19,2,.11,1.33.14,2,.09,1.34.1,2c0,1.35,0,2.69,0,4s-.14,2.62-.21,3.87-.24,2.47-.42,3.61-.33,2.22-.5,3.22-.38,1.89-.55,2.69l-.5,2.06-.5,1.78s.11-.66.32-1.82c.09-.58.2-1.28.33-2.08S20.5,63,20.63,62s.25-2.07.34-3.21.16-2.35.27-3.59.11-2.54.12-3.85,0-2.64,0-4c0-.66-.05-1.33-.07-2s-.06-1.32-.13-2S21,42.11,21,41.48s-.15-1.27-.22-1.89c-.13-1.25-.33-2.44-.5-3.57s-.41-2.19-.6-3.18-.44-1.87-.62-2.67-.39-1.48-.55-2Z"/><path class="bb6b3b90-2909-46bb-b084-40bb1735a59f" d="M15.65,15c6.12,5.8,12.91,15.63,17.83,26.75A51,51,0,0,1,37.56,65a3.85,3.85,0,0,0,2.53,3.87L52.7,57.94a46.91,46.91,0,0,0-7.52-32.22C36.78,13.1,24,5.36,16.88,4.59,12.4,4.11,8.8,6,6.92,9.77h0c.29-.54,1-.5,1.79-.07A34,34,0,0,1,15.65,15Z"/><g class="e391ea6d-8d5c-41a8-9d06-21c159f76b63"><path class="bb6b3b90-2909-46bb-b084-40bb1735a59f" d="M17.08,14.4l1.56,1.46.81.77.91,1C21,18.3,21.77,19,22.48,20s1.55,1.86,2.34,2.93,1.65,2.17,2.43,3.38l1.21,1.84.61.94.58,1c.74,1.31,1.58,2.61,2.27,4s1.44,2.7,2,4.08c.32.68.63,1.36.94,2,.15.34.31.66.45,1l.4,1c.14.33.27.66.4,1l.34,1c.22.66.44,1.3.61,1.93.37,1.26.65,2.46.89,3.57.11.56.21,1.1.31,1.61s.14,1,.2,1.46c.14.91.19,1.71.26,2.37s.06,1.18.08,1.53l0,.54s-.11-.74-.3-2c-.12-.65-.22-1.44-.42-2.34s-.43-1.91-.69-3-.62-2.27-1-3.49c-.19-.62-.44-1.24-.68-1.87l-.36-1-.42-1-.42-1c-.14-.31-.31-.65-.47-1-.32-.66-.63-1.33-1-2-.61-1.37-1.37-2.69-2.07-4s-1.48-2.65-2.22-4-1.56-2.53-2.3-3.75c-.37-.62-.78-1.19-1.16-1.76l-1.13-1.68c-.73-1.09-1.52-2.06-2.19-3l-.51-.67L21,19l-.94-1.16-.83-1L18.5,16Z"/></g><path class="bb6b3b90-2909-46bb-b084-40bb1735a59f" d="M49.32,48.22"/><path class="bb6b3b90-2909-46bb-b084-40bb1735a59f" d="M70.85,33.11,55.32,24.49S51.21,22,51.8,26.13c.56,4,.63,10-1.08,18.05-3.39,16-9.8,21.19-9.8,21.19s-3,2.5-3.36-.39c0,0-1.76,7.56,3.73,4.53h0L70.91,53.18C80.88,47.68,80.85,38.65,70.85,33.11Z"/><g class="ac254f8e-81fb-4924-a214-3b83216b486e"><path class="bb6b3b90-2909-46bb-b084-40bb1735a59f" d="M53.61,27.91s.07.56.17,1.53c0,.49.11,1.08.15,1.76s0,1.46,0,2.3v1.32c0,.46-.06.92-.1,1.41-.08,1-.16,2-.25,3s-.35,2.11-.52,3.2c-.1.55-.19,1.1-.29,1.65s-.25,1.1-.37,1.64L52,47.39c-.15.54-.32,1.08-.47,1.61s-.32,1.06-.47,1.59-.37,1-.55,1.51c-.33,1-.75,1.95-1.13,2.84s-.82,1.71-1.18,2.48-.81,1.42-1.15,2l-1,1.5c-.59.8-.94,1.25-.94,1.25L46,60.85c.23-.44.5-1,.82-1.57s.62-1.32,1-2.08l.5-1.21c.19-.41.36-.85.52-1.3.33-.9.69-1.84,1-2.84.17-.5.33-1,.49-1.51s.29-1,.44-1.57.3-1.05.44-1.59.25-1.09.37-1.63l.39-1.62.3-1.63c.2-1.07.4-2.13.6-3.16s.25-2,.37-3q.09-.7.18-1.38c0-.44.06-.88.09-1.29.05-.83.11-1.6.17-2.27s0-1.28,0-1.77C53.6,28.47,53.61,27.91,53.61,27.91Z"/></g><path class="bb6b3b90-2909-46bb-b084-40bb1735a59f" d="M34.56,47.67a78.26,78.26,0,0,0-6.2-34.87L23.6,6.9C16.12,2.75,9.68,4.19,6.92,9.77h0c21.54,24.39,11.85,61,9,65.91a6.38,6.38,0,0,1-7.1,3,9.38,9.38,0,0,0,7.51,2.8l1-.1h.08C28.18,76.82,33.48,68.14,34.56,47.67Z"/></g><path class="be973303-9085-411d-bffd-2df6dbb04680" d="M34.44,33.77l.93-1.19-1.45-.66,1.4-1.12-1.2-1.25,1.43-1.27-3.11-3.17.34-1.93L28.09,17.5,20.5,16a.83.83,0,0,0-.74-.7.78.78,0,1,0-.22,1.54.84.84,0,0,0,.88-.4l7,1.4-1.94,1.32-3.74-1a.84.84,0,1,0-1,.66.85.85,0,0,0,.77-.25l4,1.1L27.91,18l4,4.83-11-3a.83.83,0,0,0-.72-.77.78.78,0,1,0-.25,1.53.83.83,0,0,0,.84-.34l2.25.58L20.65,22.3l-1.94-.56A.82.82,0,0,0,18,21a.79.79,0,0,0-.93.54.85.85,0,0,0,.68,1,.83.83,0,0,0,.85-.34l2.15.61L23.56,21l8.7,2.42L32,25,29.64,25l-1.89-1.48-3.32-.22a.84.84,0,0,0-.69-.57.78.78,0,1,0-.24,1.53.83.83,0,0,0,.93-.52l3.15.22L28.93,25l-8.27.18a.84.84,0,0,0-.69-.53.83.83,0,0,0-.91.59.84.84,0,0,0,1.63.38l3.48-.06-1,1.67-2.41.06a.86.86,0,0,0-.69-.52.78.78,0,1,0,.72,1l2.67-.07,1.3-2.11,7.35-.19,2.8,2.85-1.22,1.07L28,30.13l-1.9-1.57-5.37.77a.88.88,0,0,0-.69-.42.78.78,0,1,0-.18,1.54.81.81,0,0,0,1-.62s0,0,0-.07L25.94,29l1.45,1.2-8.66,1.06a.84.84,0,0,0-.64-.44.82.82,0,0,0-.92.59.84.84,0,0,0,1.64.32,0,0,0,0,1,0,0l5-.55-.55,1.34L20.78,33a.84.84,0,0,0-.64-.44.82.82,0,0,0-.92.59.8.8,0,0,0,.69.94.79.79,0,0,0,.95-.62s0,0,0,0l2.77-.54.75-1.82,9.31-1.32.94,1L33.06,32l1.59.72-.62.79-1.39.21-2.38-1.5-3.46.45a.9.9,0,0,0-.61-.37A.77.77,0,1,0,26,33.85a.82.82,0,0,0,1-.62v-.11l3.23-.42L32,33.85,21.83,35.42A.83.83,0,0,0,21.2,35a.82.82,0,0,0-.92.58.8.8,0,0,0,.68,1,.82.82,0,0,0,1-.62v0l4.76-.73-1.15,1.81L24,37.17a.9.9,0,0,0-.64-.32.82.82,0,0,0-.81.52.8.8,0,0,0,.68,1A.84.84,0,0,0,24,38a.59.59,0,0,0,.11-.43l1.7-.27L27.29,35,34,34l.73,1.64-.55.85-6.08.3-2,2.93a.84.84,0,0,0-1.14.56.84.84,0,0,0,1.62.4.72.72,0,0,0-.11-.67l1.9-2.79,6.09-.31.8-1.22Z"/><polygon class="f0600e9b-5224-4cde-a8c4-25253fd92b26" points="18.56 71.78 14.52 71.78 14.52 44.85 41.05 44.85 41.05 49.55 18.56 49.55 18.56 71.78"/><polygon class="f0600e9b-5224-4cde-a8c4-25253fd92b26" points="39.69 41.32 14.52 41.32 14.52 14.39 18.56 14.39 18.56 36.62 37.56 36.62 39.69 41.32"/><rect class="f0600e9b-5224-4cde-a8c4-25253fd92b26" x="6.94" y="14.39" width="4.04" height="57.39"/><path class="f0600e9b-5224-4cde-a8c4-25253fd92b26" d="M65.72,71.78H28.8v-4.7H65.72c5.13,0,9.3-4.86,9.3-10.82s-4.17-10.82-9.3-10.82H53.23a12.4,12.4,0,0,1-9.44-4.55,16.79,16.79,0,0,1-3.91-11,16.78,16.78,0,0,1,3.91-11,12.4,12.4,0,0,1,9.44-4.55H77V19.1H53.23c-5.13,0-9.3,4.85-9.3,10.81s4.17,10.82,9.3,10.82H65.72a12.43,12.43,0,0,1,9.44,4.55,17.41,17.41,0,0,1,0,22A12.42,12.42,0,0,1,65.72,71.78Z"/><path class="f0600e9b-5224-4cde-a8c4-25253fd92b26" d="M59.47,36.62H53.23c-3.18,0-5.77-3-5.77-6.71s2.59-6.7,5.77-6.7H77v4.71H53.23a2,2,0,0,0,0,4h6.24Z"/><path class="f0600e9b-5224-4cde-a8c4-25253fd92b26" d="M65.72,63H41.9v-4.7H65.72a2,2,0,0,0,0-4H59.47V49.55h6.25c3.18,0,5.76,3,5.76,6.71S68.9,63,65.72,63Z"/><path class="a7bab4f9-7e47-400c-88cb-f19e63b89fa2" d="M103,23.16v11h10.68v-11h6.48V51.8h-6.48v-12H103v12H96.57V23.16Z"/><path class="a7bab4f9-7e47-400c-88cb-f19e63b89fa2" d="M132.49,44.45l-2,7.35h-6.7l8.74-28.64H141L149.9,51.8h-7l-2.21-7.35Zm7.28-4.83L138,33.54c-.49-1.7-1-3.84-1.44-5.52h-.09c-.42,1.69-.85,3.86-1.31,5.53l-1.71,6.07Z"/><path class="a7bab4f9-7e47-400c-88cb-f19e63b89fa2" d="M153.24,37.65c0-2.59-.08-4.78-.17-6.65h5.61l.3,2.89h.14a7.52,7.52,0,0,1,6.42-3.35c4.25,0,7.45,2.83,7.45,9V51.8h-6.48V40.28c0-2.68-.95-4.52-3.29-4.52a3.5,3.5,0,0,0-3.28,2.44,4.8,4.8,0,0,0-.22,1.6v12h-6.48Z"/><path class="a7bab4f9-7e47-400c-88cb-f19e63b89fa2" d="M178.59,45.12a16,16,0,0,0,7.18,1.8c3,0,4.55-1.24,4.55-3.12s-1.36-2.8-4.79-4c-4.78-1.69-7.9-4.29-7.9-8.48,0-4.88,4.1-8.59,10.83-8.59a16.85,16.85,0,0,1,7.31,1.44l-1.43,5.19a13.72,13.72,0,0,0-6-1.36c-2.82,0-4.16,1.31-4.16,2.77,0,1.82,1.59,2.62,5.3,4,5.07,1.89,7.42,4.53,7.42,8.57,0,4.79-3.66,8.89-11.55,8.89a18.51,18.51,0,0,1-8.09-1.78Z"/><text class="b501d5b8-ef00-4955-92b2-b157ed70b4eb" transform="translate(95.6 62.92)">Hochschul-Assistenz-System</text><text/></g></g></svg>